<svg width="244" height="244" viewBox="0 0 244 244" fill="none" xmlns="http://www.w3.org/2000/svg">
<mask id="mask0_1_2304" style="mask-type:luminance" maskUnits="userSpaceOnUse" x="0" y="0" width="244" height="244">
<path d="M243.346 122.083C243.346 189.225 188.92 243.656 121.773 243.656C54.6265 243.656 0.199707 189.225 0.199707 122.083C0.199707 54.94 54.6265 0.510651 121.773 0.510651C188.92 0.510651 243.346 54.94 243.346 122.083Z" fill="white"/>
</mask>
<g mask="url(#mask0_1_2304)">
<path d="M243.346 243.655H0.199707V0.510667H243.346V243.655Z" fill="#FDFFB6"/>
<path d="M77.4131 198.263C90.1865 197.649 102.946 194.059 114.026 186.915C124.493 180.164 133.16 170.492 141.707 160.935C146.773 155.255 151.893 149.516 155.72 142.733C162.573 130.615 164.853 116.069 167 101.941C168.107 94.6706 169.213 87.1986 167.893 79.9719C164.16 59.5266 142.387 49.1679 123.773 51.0506C107.88 52.6599 91.5598 61.9946 85.3465 78.4133C80.4931 91.2146 82.3731 106.219 77.6131 119.063C70.9865 136.945 52.2798 148.716 51.0264 168.017C50.7331 172.555 51.4932 177.169 50.7199 181.639C49.8666 186.649 47.1864 191.084 46.2931 196.088C44.9064 203.955 48.4132 212.315 54.1199 217.18C59.8266 222.047 67.3866 223.692 74.5199 222.891C74.5466 213.611 78.0398 204.399 84.0131 197.943L77.4131 198.263Z" fill="#EF6A55"/>
<path d="M183.56 189.336C172.24 181.761 158.573 178.728 145.227 176.048C144.413 175.884 143.573 175.707 142.92 175.196C141.8 174.32 144.333 144.843 142.92 131.955L123.867 133.739L104.813 131.955C103.387 144.843 105.933 174.32 104.813 175.196C104.16 175.707 103.32 175.884 102.493 176.048C89.1466 178.728 75.4802 181.761 64.1735 189.336C52.8668 196.911 44.2934 210.121 46.1201 223.612C57.4668 223.553 89.1733 223.759 121.28 224.181V224.251C122.147 224.239 123 224.227 123.867 224.215C124.72 224.227 125.587 224.239 126.44 224.251V224.181C158.56 223.759 190.267 223.553 201.613 223.612C203.427 210.121 194.867 196.911 183.56 189.336Z" fill="#FBD1B9"/>
</g>
<mask id="mask1_1_2304" style="mask-type:luminance" maskUnits="userSpaceOnUse" x="0" y="0" width="244" height="244">
<path d="M243.346 122.083C243.346 189.225 188.92 243.656 121.773 243.656C54.6265 243.656 0.199707 189.225 0.199707 122.083C0.199707 54.94 54.6265 0.510651 121.773 0.510651C188.92 0.510651 243.346 54.94 243.346 122.083Z" fill="white"/>
</mask>
<g mask="url(#mask1_1_2304)">
<mask id="mask2_1_2304" style="mask-type:luminance" maskUnits="userSpaceOnUse" x="45" y="131" width="157" height="94">
<path d="M183.56 189.336C172.24 181.763 158.573 178.728 145.227 176.048C144.413 175.884 143.573 175.707 142.92 175.195C141.8 174.321 144.333 144.843 142.92 131.955L123.867 133.739L104.813 131.955C103.387 144.843 105.933 174.321 104.813 175.195C104.16 175.707 103.307 175.884 102.493 176.048C89.1466 178.728 75.4802 181.763 64.1735 189.336C52.8668 196.911 44.2934 210.121 46.1201 223.612C57.4668 223.553 89.1733 223.759 121.28 224.18V224.251C122.147 224.239 123 224.227 123.867 224.215C124.72 224.227 125.587 224.239 126.44 224.251V224.18C158.56 223.759 190.267 223.553 201.613 223.612C203.427 210.121 194.867 196.911 183.56 189.336Z" fill="white"/>
</mask>
<g mask="url(#mask2_1_2304)">
<path d="M79.4534 131.54C86.9734 126.701 87.2934 124.379 87.6534 126.701C89.4267 138.108 107.467 165.589 123.853 165.589C145.067 165.589 157.387 129.775 159.373 120.749C134.853 124.253 110.013 127.764 85.4133 124.815C86.0933 125.452 86.7601 126.089 87.4401 126.727L79.4534 131.54Z" fill="#DBA78A"/>
</g>
</g>
<mask id="mask3_1_2304" style="mask-type:luminance" maskUnits="userSpaceOnUse" x="0" y="0" width="244" height="244">
<path d="M243.346 122.083C243.346 189.225 188.92 243.656 121.773 243.656C54.6265 243.656 0.199707 189.225 0.199707 122.083C0.199707 54.94 54.6265 0.510651 121.773 0.510651C188.92 0.510651 243.346 54.94 243.346 122.083Z" fill="white"/>
</mask>
<g mask="url(#mask3_1_2304)">
<path d="M95.6001 69.0133C91.2267 83.804 92.3067 109.721 95.6001 124.789L95.6534 125.032C97.4401 133.12 100.307 141.197 105.68 147.492C111.067 153.788 119.36 158.044 127.56 156.928C135.507 155.848 142.16 149.952 146.04 142.939C149.907 135.925 151.4 127.869 152.48 119.931C154.36 106.109 153.867 69.4 152.533 69.2866C135.44 67.84 112.24 64.3387 95.6001 68.5347V69.0133Z" fill="#FBD1B9"/>
<path d="M151.8 114.205C152.213 111.161 155.88 109.259 158.813 110.151C161.76 111.044 163.693 114.097 163.92 117.161C164.133 120.227 162.893 123.243 161.133 125.763C158.2 129.965 153.053 133.228 148.093 131.928C148.88 125.625 150.013 119.365 151.466 113.185L151.8 114.205Z" fill="#FBD1B9"/>
<path d="M96.0533 114.205C95.64 111.161 91.9731 109.259 89.0265 110.151C86.0931 111.044 84.1466 114.097 83.9332 117.161C83.7066 120.227 84.96 123.243 86.7067 125.763C89.64 129.965 94.7998 133.228 99.7598 131.928C98.9731 125.625 97.84 119.365 96.3733 113.185L96.0533 114.205Z" fill="#FBD1B9"/>
<path d="M91.0664 102.513C98.653 103.151 106.053 100.167 111.666 95.5199C117.266 90.8733 121.8 85.2373 127.56 80.7479C133.466 76.1493 140.586 72.844 148.16 71.1906C146.146 82.4693 149.866 93.8693 153.533 104.803C155.52 94.3599 157.52 83.7199 155.92 73.2226C155.453 70.0693 154.466 66.6879 151.666 64.7613C149.413 63.2133 146.426 62.9159 143.6 62.7253C128.306 61.6879 112.893 62.1186 97.7065 64.0053C96.5331 64.152 95.3196 64.3226 94.3463 64.9333C93.013 65.7719 92.4131 67.2613 91.9731 68.6733C88.5198 79.668 89.8929 91.3653 91.2929 102.724L91.0664 102.513Z" fill="#EF6A55"/>
<path d="M151.533 69.944C151.827 69.4347 152.133 68.9334 152.467 68.4454C152.627 68.2014 152.786 67.96 152.96 67.7214L153.226 67.3667L153.346 67.2094C153.453 67.0654 153.2 67.3907 153.4 67.1454C154.12 66.2214 154.92 65.3507 155.76 64.536C156.146 64.1653 156.16 63.456 155.76 63.088C155.346 62.7054 154.733 62.6907 154.32 63.088C152.533 64.796 150.986 66.768 149.76 68.9107C149.493 69.376 149.64 70.052 150.133 70.312C150.613 70.5694 151.253 70.4413 151.533 69.944Z" fill="#A3362B"/>
<path d="M152.72 79.992C152.52 87.056 154.08 94.0667 157.226 100.389C157.813 101.569 159.586 100.533 159 99.3547C156.013 93.3547 154.573 86.6894 154.76 79.992C154.8 78.6734 152.746 78.6747 152.72 79.992Z" fill="#A3362B"/>
<path d="M160.067 86.2812C160.413 89.2466 160.747 92.2119 161.093 95.1773C161.16 95.7266 161.52 96.2013 162.12 96.2013C162.627 96.2013 163.213 95.7306 163.147 95.1773C162.8 92.2119 162.453 89.2466 162.107 86.2812C162.053 85.7319 161.693 85.2573 161.093 85.2573C160.587 85.2573 160 85.7279 160.067 86.2812Z" fill="#A3362B"/>
<path d="M74.1598 133.491C72.5598 137.531 70.5466 141.4 68.1466 145.021C65.8532 148.483 62.9998 151.615 61.1598 155.361C57.4932 162.816 58.6398 171.307 56.8932 179.213C56.0132 183.187 54.3999 187.029 51.2799 189.751C50.2799 190.619 51.7333 192.063 52.7333 191.2C58.6666 186.033 59.4667 177.696 60.0533 170.353C60.3867 166.12 60.7467 161.805 62.3067 157.815C63.8667 153.813 66.8132 150.572 69.2265 147.08C72.0265 143.016 74.3199 138.628 76.1333 134.035C76.6266 132.808 74.6398 132.276 74.1598 133.491Z" fill="#A3362B"/>
<path d="M66.4402 161.896C67.6135 169.455 65.8802 177.308 61.7735 183.736C61.0535 184.849 62.8267 185.877 63.5334 184.769C67.9734 177.849 69.68 169.46 68.4266 161.352C68.2266 160.053 66.2402 160.604 66.4402 161.896Z" fill="#A3362B"/>
<path d="M79.7069 159.5C79.8135 162.245 79.4401 164.956 78.6001 167.573C78.2001 168.832 80.1735 169.372 80.5735 168.119C81.4669 165.343 81.8666 162.411 81.76 159.5C81.7333 158.947 81.2934 158.475 80.7334 158.475C80.1868 158.475 79.6802 158.944 79.7069 159.5Z" fill="#A3362B"/>
<path d="M89.0132 118.747C91.2532 120.771 93.2932 123.036 95.0265 125.471C95.3465 125.92 95.9198 126.135 96.4265 125.837C96.8665 125.577 97.12 124.889 96.7866 124.436C94.9466 121.839 92.8266 119.439 90.4666 117.297C90.0533 116.927 89.4132 116.892 89.0132 117.297C88.6399 117.675 88.5999 118.373 89.0132 118.747Z" fill="#A46E4A"/>
<path d="M91.0935 125.724C92.3335 125.055 93.5602 124.384 94.8002 123.715C95.2669 123.459 95.467 122.767 95.1737 122.312C94.8537 121.833 94.2668 121.671 93.7601 121.945C92.5335 122.615 91.2936 123.285 90.0536 123.955C89.587 124.211 89.4001 124.903 89.6935 125.357C90.0001 125.836 90.5868 125.999 91.0935 125.724Z" fill="#A46E4A"/>
<path d="M153.8 121.835C153.92 121.599 154.04 121.369 154.187 121.145L154.4 120.816L154.627 120.497V120.507L154.734 120.369L155 120.075C155.174 119.881 155.36 119.697 155.56 119.521L155.854 119.265C155.88 119.244 156.04 119.112 155.92 119.212C155.8 119.311 155.96 119.181 155.987 119.161C156.2 119.005 156.427 118.86 156.64 118.724C156.867 118.588 157.107 118.464 157.334 118.349L157.667 118.201C157.4 118.289 157.64 118.216 157.68 118.197L157.88 118.123C158.387 117.94 158.787 117.417 158.6 116.861C158.44 116.368 157.88 115.952 157.347 116.147C155.067 116.968 153.12 118.623 152.027 120.8C151.787 121.279 151.894 121.932 152.4 122.201C152.867 122.447 153.547 122.347 153.8 121.835Z" fill="#A46E4A"/>
<path d="M153.026 121.852C153.56 122.547 154.08 123.243 154.613 123.939L154.88 124.225C154.973 124.316 155.093 124.377 155.226 124.409C155.466 124.476 155.8 124.447 156.013 124.305C156.226 124.165 156.426 123.955 156.48 123.693C156.533 123.443 156.547 123.119 156.373 122.904C155.853 122.208 155.333 121.513 154.8 120.817L154.533 120.531C154.44 120.44 154.32 120.379 154.187 120.347C153.947 120.279 153.613 120.309 153.4 120.449C153.187 120.591 152.987 120.801 152.933 121.063C152.867 121.312 152.866 121.637 153.026 121.852Z" fill="#A46E4A"/>
<path d="M109.293 109.991C109.293 112.125 107.707 113.856 105.76 113.856C103.813 113.856 102.24 112.125 102.24 109.991C102.24 107.856 103.813 106.125 105.76 106.125C107.707 106.125 109.293 107.856 109.293 109.991Z" fill="#1A1A1A"/>
<path d="M144.24 109.991C144.24 112.125 142.666 113.856 140.72 113.856C138.773 113.856 137.2 112.125 137.2 109.991C137.2 107.856 138.773 106.125 140.72 106.125C142.666 106.125 144.24 107.856 144.24 109.991Z" fill="#1A1A1A"/>
<path d="M116.307 139.633C117.067 137.436 118.88 135.551 121.146 135.028C123.4 134.505 126.027 135.549 127.053 137.635C128.4 140.389 126.253 144.121 123.213 144.535C120.173 144.948 117.186 142.169 117.16 139.101L116.307 139.633Z" fill="#EF6A55"/>
<path d="M112.96 138.704C118.627 143.216 127.427 142.74 132.44 137.44C133.347 136.481 131.893 135.031 130.987 135.991C126.8 140.413 119.213 141.087 114.413 137.255C113.4 136.441 111.933 137.881 112.96 138.704Z" fill="#A46E4A"/>
<path d="M118.12 106.971C117.147 111.904 116.36 116.871 115.76 121.863C115.506 123.96 115.213 126.372 116.507 128.215C117.533 129.677 119.467 130.656 121.213 129.936C122.427 129.443 121.893 127.46 120.68 127.961C119.187 128.572 118 127.183 117.707 125.839C117.293 123.943 117.8 121.775 118.053 119.883C118.6 115.739 119.293 111.615 120.093 107.515C120.346 106.227 118.373 105.676 118.12 106.971Z" fill="#A46E4A"/>
<path d="M134.36 96.1853C133.893 96.48 134.147 97.272 134.64 97.492C135.147 97.7133 135.72 97.5627 136.253 97.4373C140.4 96.4587 144.96 97.292 148.493 99.68C146.96 96.9573 144.293 94.896 141.28 94.0946C138.773 93.432 135.64 93.8747 134.36 96.124V96.1853Z" fill="#EF6A55"/>
<path d="M87.9998 99.6654C91.2798 97.832 95.1997 97.9147 98.693 96.7133C101.693 95.6867 104.32 93.9174 106.666 91.8347C111.64 87.4387 115.386 81.796 120.733 77.8146C124.066 75.336 127.786 73.4427 131.76 72.212C133.013 71.8214 132.48 69.8427 131.213 70.236C124.226 72.4067 118.346 76.4894 113.4 81.8067C109.093 86.4174 105 91.9947 98.9732 94.4333C95.0799 96.008 90.6932 95.8187 86.9732 97.896C85.8132 98.54 86.8531 100.309 87.9998 99.6654Z" fill="#A3362B"/>
<path d="M119.493 69.7667C114.16 72.3787 109.667 76.2134 106.04 80.8934C102.68 85.2467 98.6534 91.2134 92.3334 90.4654C91.0267 90.3107 91.0401 92.36 92.3334 92.5134C98.7467 93.2734 103.28 87.876 106.747 83.316C108.6 80.8974 110.52 78.6 112.827 76.6C115.16 74.576 117.76 72.892 120.52 71.536C121.707 70.956 120.667 69.188 119.493 69.7667Z" fill="#A3362B"/>
<path d="M104.733 166.272C125.907 177.883 139.56 166.955 142.973 166.272C143.653 166.139 144.787 177.104 143.413 178.413C142.413 179.361 104.266 180.396 103.36 179.229C102.453 178.072 102.467 165.033 104.733 166.272Z" fill="#FFB753"/>
<path d="M41.6533 226.503C40.6 210.512 51.0799 195.445 64.6666 186.935C78.2399 178.424 94.48 175.367 110.387 173.427C131.267 170.881 153.08 170.085 172.68 177.705C192.28 185.324 209.16 203.169 209.947 224.185L127.267 253.012L41.6533 226.503Z" fill="#FFB753"/>
<path d="M107.387 171.829C108.133 173.897 108.187 176.009 107.547 178.091C107.387 178.603 107.733 179.231 108.253 179.351C108.813 179.477 109.347 179.184 109.52 178.636C110.253 176.255 110.213 173.629 109.36 171.284C109.173 170.764 108.666 170.413 108.093 170.568C107.6 170.707 107.2 171.307 107.387 171.829Z" fill="#724328"/>
<path d="M112.347 174.391C112.653 176.316 112.96 178.24 113.267 180.164C113.347 180.696 114.04 181.037 114.533 180.88C115.107 180.693 115.333 180.189 115.24 179.62C114.933 177.695 114.627 175.771 114.32 173.847C114.227 173.316 113.547 172.973 113.053 173.131C112.48 173.317 112.253 173.823 112.347 174.391Z" fill="#724328"/>
<path d="M120.747 174.656C120.84 176.231 120.933 177.804 121.026 179.379C121.066 179.912 121.48 180.429 122.053 180.403C122.573 180.38 123.107 179.952 123.08 179.379C122.987 177.804 122.88 176.231 122.787 174.656C122.76 174.123 122.346 173.605 121.76 173.632C121.24 173.655 120.707 174.083 120.747 174.656Z" fill="#724328"/>
<path d="M128.854 174.148C128.854 175.717 128.854 177.287 128.854 178.856C128.854 179.392 129.333 179.905 129.88 179.881C130.44 179.856 130.907 179.431 130.907 178.856C130.907 177.287 130.907 175.717 130.907 174.148C130.907 173.612 130.44 173.099 129.88 173.124C129.333 173.148 128.854 173.573 128.854 174.148Z" fill="#724328"/>
<path d="M137.227 171.009C137.227 172.928 137.227 174.845 137.227 176.764C137.227 177.3 137.707 177.813 138.253 177.788C138.813 177.764 139.28 177.339 139.28 176.764C139.28 174.845 139.28 172.928 139.28 171.009C139.28 170.473 138.813 169.96 138.253 169.985C137.693 170.009 137.227 170.435 137.227 171.009Z" fill="#724328"/>
<path d="M63.8666 201.884C64.44 209.379 65.0133 216.873 65.6 224.367C65.6933 225.673 67.7467 225.684 67.6401 224.367C67.0667 216.873 66.4934 209.379 65.92 201.884C65.8134 200.577 63.7733 200.567 63.8666 201.884Z" fill="#724328"/>
<path d="M60.3598 205.605C61.7598 207.693 63.1598 209.78 64.5598 211.868C64.8665 212.312 65.4798 212.548 65.9598 212.236C66.4132 211.951 66.6533 211.309 66.3333 210.833C64.9333 208.747 63.5333 206.659 62.12 204.572C61.8266 204.128 61.2133 203.892 60.72 204.204C60.28 204.489 60.0398 205.131 60.3598 205.605Z" fill="#724328"/>
<path d="M184.56 199.495C185.733 206.343 186.48 213.252 186.826 220.189C186.893 221.501 188.946 221.509 188.88 220.189C188.52 213.069 187.733 205.979 186.533 198.951C186.32 197.653 184.346 198.203 184.56 199.495Z" fill="#724328"/>
<path d="M190.2 201.879C188.84 203.819 187.907 206.069 187.493 208.404C187.4 208.929 187.627 209.533 188.2 209.664C188.707 209.777 189.373 209.512 189.467 208.948C189.867 206.685 190.653 204.791 191.973 202.913C192.28 202.473 192.067 201.756 191.6 201.512C191.08 201.235 190.533 201.409 190.2 201.879Z" fill="#724328"/>
<path d="M167.346 180.92C168.973 178.211 171.053 175.844 173.52 173.843C173.947 173.495 173.88 172.756 173.52 172.393C173.093 171.968 172.507 172.045 172.067 172.393C169.493 174.484 167.293 177.037 165.587 179.885C165.293 180.36 165.48 181.011 165.946 181.288C166.426 181.571 167.066 181.396 167.346 180.92Z" fill="#FFB753"/>
<path d="M172.133 181.488L172.347 181.184L172.36 181.183L172.48 181.036C172.627 180.853 172.787 180.673 172.947 180.5C173.293 180.145 173.653 179.812 174.04 179.504L174.16 179.411L174.467 179.191C174.667 179.056 174.867 178.925 175.067 178.803C175.507 178.545 175.947 178.319 176.413 178.121C176.64 178.029 176.827 177.727 176.893 177.509C176.96 177.264 176.92 176.937 176.787 176.72C176.453 176.205 175.907 176.128 175.387 176.353C173.36 177.213 171.64 178.668 170.36 180.453C170.04 180.892 170.267 181.613 170.72 181.856C171.253 182.135 171.8 181.955 172.133 181.488Z" fill="#FFB753"/>
<path d="M82.9336 173.639C84.0002 175.019 85.0669 176.399 86.1336 177.779C86.3069 178 86.4668 178.172 86.7468 178.249C86.9868 178.317 87.3202 178.287 87.5336 178.147C87.9602 177.877 88.2537 177.199 87.907 176.745C86.8403 175.365 85.7737 173.985 84.707 172.605C84.5337 172.384 84.3735 172.212 84.0935 172.135C83.8535 172.067 83.5203 172.097 83.307 172.237C82.8937 172.507 82.5869 173.185 82.9336 173.639Z" fill="#FFB753"/>
<path d="M88.0533 173.164C89.0133 175.211 89.9864 177.257 90.9598 179.304C91.1864 179.789 91.9198 179.953 92.3598 179.672C92.8531 179.349 92.9733 178.789 92.7199 178.269C91.7599 176.224 90.7865 174.177 89.8132 172.131C89.5865 171.645 88.8532 171.481 88.4132 171.763C87.9198 172.085 87.7999 172.645 88.0533 173.164Z" fill="#FFB753"/>
<path d="M94.3868 173.659C95.1334 175.207 95.88 176.755 96.6133 178.303C96.8533 178.787 97.5733 178.953 98.0133 178.671C98.52 178.349 98.6401 177.787 98.3868 177.268C97.6401 175.72 96.9066 174.173 96.1599 172.625C95.9199 172.14 95.1999 171.975 94.7599 172.257C94.2533 172.579 94.1334 173.141 94.3868 173.659Z" fill="#FFB753"/>
</g>
</svg>
